<?xml version="1.0" standalone="no"?>
<!DOCTYPE svg PUBLIC "-//W3C//DTD SVG 20010904//EN"
 "http://www.w3.org/TR/2001/REC-SVG-20010904/DTD/svg10.dtd">
<svg version="1.0" xmlns="http://www.w3.org/2000/svg"
 width="567.000000pt" height="408.000000pt" viewBox="0 0 567.000000 408.000000"
 preserveAspectRatio="xMidYMid meet">
<metadata>
Created by potrace 1.10, written by Peter Selinger 2001-2011
</metadata>
<g transform="translate(0.000000,408.000000) scale(0.100000,-0.100000)"
fill="#000000" stroke="none">
<path d="M1260 4066 c0 -17 -22 -26 -67 -26 -19 0 -47 -6 -61 -13 -15 -8 -44
-22 -65 -32 -21 -11 -47 -26 -57 -34 -10 -9 -28 -23 -40 -31 -43 -29 -140
-171 -140 -204 0 -9 -4 -16 -10 -16 -5 0 -12 -17 -15 -37 -4 -21 -13 -52 -21
-70 -8 -17 -14 -40 -14 -51 0 -11 -7 -33 -15 -48 -8 -16 -15 -39 -15 -50 0
-12 -7 -35 -15 -50 -8 -16 -15 -39 -15 -50 0 -12 -7 -35 -15 -50 -8 -16 -15
-40 -15 -54 -1 -14 -7 -36 -15 -50 -8 -14 -14 -37 -15 -51 0 -15 -7 -40 -15
-55 -8 -16 -15 -38 -15 -49 -1 -11 -7 -31 -15 -45 -8 -14 -14 -37 -15 -51 0
-15 -7 -40 -15 -55 -8 -16 -15 -39 -15 -50 0 -12 -7 -35 -15 -50 -8 -16 -15
-39 -15 -50 0 -12 -7 -35 -15 -50 -8 -16 -15 -41 -15 -56 0 -15 -4 -29 -9 -32
-4 -3 -11 -24 -15 -47 -4 -23 -13 -54 -21 -70 -8 -15 -15 -39 -15 -52 0 -14
-7 -38 -15 -53 -8 -16 -15 -39 -15 -50 0 -12 -7 -35 -15 -50 -8 -16 -15 -39
-15 -50 0 -12 -7 -35 -15 -50 -8 -16 -15 -40 -15 -55 0 -14 -4 -29 -10 -35 -5
-5 -14 -30 -19 -54 -16 -72 -33 -133 -47 -167 -8 -17 -14 -40 -14 -51 0 -11
-7 -33 -15 -48 -8 -16 -15 -39 -15 -50 0 -12 -7 -35 -15 -50 -8 -16 -15 -41
-15 -56 0 -15 -4 -29 -9 -32 -5 -4 -12 -25 -16 -49 -4 -23 -14 -54 -21 -69 -8
-15 -14 -36 -14 -46 0 -11 -7 -33 -15 -48 -8 -16 -15 -41 -15 -56 0 -15 -4
-29 -9 -33 -6 -3 -13 -26 -17 -52 -4 -25 -13 -58 -20 -72 -8 -14 -14 -37 -14
-52 0 -14 -4 -29 -9 -35 -8 -9 -32 -106 -27 -111 5 -6 887 -3 896 2 6 3 10 17
10 30 0 13 4 26 9 30 6 3 13 26 17 52 4 25 13 58 20 72 8 14 14 40 14 58 0 17
4 34 9 38 6 3 13 26 17 52 4 25 13 58 20 72 8 14 14 40 14 56 1 17 7 41 15 55
8 14 14 39 15 57 0 17 4 34 9 38 6 3 13 27 17 53 4 26 13 59 20 74 8 15 14 38
14 51 0 14 7 41 15 60 8 20 15 47 15 61 0 13 7 37 15 52 8 16 15 40 15 54 1
14 7 36 15 50 8 14 14 41 15 61 0 19 5 40 10 45 6 6 15 33 20 60 11 59 27 123
46 184 8 25 14 55 14 66 0 12 7 35 15 50 8 16 15 45 15 64 0 20 5 41 11 47 6
6 15 37 20 69 4 33 15 86 23 119 8 33 15 62 15 64 3 14 45 -41 67 -88 42 -91
144 -291 204 -398 5 -10 22 -44 37 -75 15 -32 31 -58 35 -58 4 0 8 -9 8 -19 0
-11 6 -26 13 -33 6 -7 31 -51 55 -98 24 -47 63 -121 87 -165 24 -44 56 -105
71 -135 14 -30 29 -57 33 -60 3 -3 25 -43 49 -90 24 -47 63 -121 87 -165 24
-44 56 -106 71 -138 16 -31 32 -57 36 -57 4 0 8 -9 8 -19 0 -11 6 -26 14 -34
8 -7 23 -29 33 -48 10 -19 24 -41 30 -49 60 -73 83 -95 135 -135 62 -47 73
-48 89 -12 5 12 13 29 18 37 5 8 12 22 15 30 4 8 16 31 27 50 12 19 43 76 69
125 27 50 60 110 74 135 14 25 28 52 32 60 3 8 9 22 14 30 5 8 20 35 32 60 13
25 25 47 28 50 3 3 23 41 45 85 22 44 43 82 46 85 4 3 19 30 33 60 15 30 47
91 71 135 24 44 57 105 72 135 15 30 34 61 40 68 7 7 13 22 13 33 0 10 4 19 9
19 5 0 14 12 20 28 7 15 38 77 71 137 33 61 72 135 87 165 15 30 31 57 34 60
3 3 19 30 33 60 15 30 47 91 71 135 24 44 56 105 72 135 15 30 30 57 34 60 3
3 19 32 36 65 16 33 47 92 68 130 21 39 52 97 69 130 17 33 34 62 37 65 3 3
25 43 48 90 23 47 55 108 71 135 16 28 48 88 72 135 23 47 45 87 49 90 3 3 18
30 33 60 15 30 32 64 39 75 61 98 62 105 24 105 -17 0 -48 -13 -97 -41 -8 -5
-25 -13 -38 -19 -30 -13 -182 -167 -182 -184 0 -8 -6 -18 -13 -24 -7 -6 -28
-42 -47 -79 -19 -37 -38 -70 -42 -73 -4 -3 -12 -17 -18 -30 -5 -14 -24 -47
-41 -75 -16 -27 -35 -61 -42 -75 -6 -14 -15 -27 -19 -30 -4 -3 -12 -17 -17
-30 -6 -14 -21 -41 -33 -60 -11 -19 -32 -55 -45 -80 -13 -25 -32 -58 -43 -75
-10 -16 -29 -50 -42 -75 -13 -25 -25 -47 -28 -50 -3 -3 -11 -16 -18 -30 -6
-14 -27 -52 -46 -85 -38 -66 -64 -112 -92 -165 -11 -19 -22 -37 -26 -40 -4 -3
-12 -17 -18 -30 -5 -14 -24 -47 -41 -75 -16 -27 -35 -61 -42 -75 -6 -14 -14
-27 -18 -30 -3 -3 -12 -17 -20 -32 -8 -15 -28 -53 -45 -85 -17 -32 -57 -107
-88 -168 -31 -60 -61 -114 -67 -119 -5 -6 -9 -18 -9 -28 0 -10 -4 -18 -9 -18
-5 0 -12 -13 -16 -29 -3 -16 -17 -39 -30 -51 l-23 -22 -18 33 c-10 19 -35 68
-56 109 -38 74 -48 93 -68 128 -6 9 -13 24 -16 32 -3 8 -10 22 -15 30 -5 8
-14 26 -20 40 -5 13 -13 27 -17 30 -4 3 -18 27 -32 55 -14 27 -41 77 -61 110
-20 34 -40 71 -43 83 -4 12 -12 22 -17 22 -5 0 -9 5 -9 11 0 6 -20 45 -45 86
-25 40 -45 78 -45 83 0 5 -6 15 -12 22 -7 7 -24 36 -38 63 -14 28 -34 63 -44
79 -11 16 -32 52 -47 80 -57 106 -77 142 -97 176 -12 19 -27 46 -33 60 -5 13
-13 27 -17 30 -4 3 -13 16 -19 30 -7 14 -26 48 -42 75 -17 28 -36 61 -41 75
-6 13 -14 27 -18 30 -4 3 -13 16 -19 30 -7 14 -26 48 -43 75 -16 28 -35 62
-41 78 -6 15 -15 27 -19 27 -4 0 -10 10 -14 23 -12 47 -165 205 -225 232 -20
9 -48 23 -63 31 -14 7 -47 14 -72 14 -35 0 -49 5 -58 20 -11 17 -24 20 -75 20
-47 0 -63 -4 -63 -14z"/>
<path d="M4315 4062 c-6 -10 -17 -32 -25 -48 -8 -16 -17 -31 -21 -34 -3 -3
-19 -30 -33 -60 -15 -30 -47 -91 -71 -135 -24 -44 -57 -105 -72 -135 -15 -30
-34 -61 -40 -68 -7 -7 -13 -22 -13 -33 0 -10 -4 -19 -8 -19 -4 0 -20 -26 -36
-57 -15 -32 -47 -94 -71 -138 -24 -44 -56 -105 -72 -135 -15 -30 -31 -57 -34
-60 -3 -3 -19 -30 -33 -60 -15 -30 -47 -91 -71 -135 -24 -44 -56 -105 -72
-135 -15 -30 -31 -57 -34 -60 -3 -3 -25 -43 -48 -90 -23 -47 -52 -101 -63
-120 -11 -19 -42 -75 -68 -125 -27 -49 -60 -110 -74 -135 -14 -25 -28 -49 -30
-55 -2 -5 -7 -17 -10 -25 -4 -8 -20 -37 -36 -65 -16 -27 -49 -88 -72 -135 -24
-47 -46 -87 -49 -90 -4 -3 -19 -30 -33 -60 -15 -30 -47 -91 -71 -135 -24 -44
-57 -105 -72 -135 -15 -30 -34 -61 -40 -68 -7 -7 -13 -22 -13 -33 0 -10 -4
-19 -8 -19 -4 0 -15 -15 -23 -32 -14 -30 -86 -165 -135 -258 -11 -19 -25 -40
-31 -48 -7 -7 -13 -22 -13 -33 0 -10 -3 -19 -8 -19 -4 0 -18 -24 -32 -52 -13
-29 -30 -59 -37 -66 -16 -17 -8 -32 16 -32 23 0 43 23 76 90 14 30 46 91 70
135 24 44 56 105 72 135 15 30 30 57 34 60 3 3 19 32 36 65 16 33 47 92 68
130 21 39 52 97 69 130 16 33 33 62 36 65 4 3 26 43 49 90 23 47 56 108 71
135 16 28 49 88 72 135 24 47 46 87 49 90 4 3 19 30 33 60 15 30 47 91 71 135
24 44 56 105 72 135 15 30 30 57 34 60 3 3 19 32 36 65 16 33 45 87 63 120 18
33 55 103 83 155 57 107 109 204 160 300 19 36 50 94 69 130 18 36 36 67 39
70 4 3 19 30 33 60 15 30 47 91 71 135 24 44 56 105 72 135 15 30 30 57 34 60
3 3 19 32 36 65 16 33 44 86 61 118 18 31 32 66 32 77 0 26 -32 27 -45 2z"/>
<path d="M4443 4028 c-7 -12 -49 -91 -115 -218 -13 -25 -25 -47 -28 -50 -3 -3
-23 -41 -45 -85 -22 -44 -43 -82 -46 -85 -3 -3 -19 -32 -36 -65 -16 -33 -45
-87 -63 -120 -18 -33 -54 -100 -80 -150 -27 -49 -60 -110 -74 -135 -14 -25
-28 -51 -31 -57 -3 -7 -7 -19 -10 -25 -3 -7 -19 -35 -35 -63 -16 -27 -44 -78
-61 -112 -17 -35 -35 -65 -40 -68 -5 -4 -9 -15 -9 -26 0 -10 -4 -19 -8 -19 -4
0 -20 -26 -36 -57 -15 -32 -47 -94 -71 -138 -24 -44 -56 -105 -72 -135 -15
-30 -31 -57 -34 -60 -3 -3 -19 -30 -33 -60 -15 -30 -47 -91 -71 -135 -24 -44
-56 -105 -72 -135 -15 -30 -31 -57 -34 -60 -3 -3 -18 -30 -33 -60 -15 -30 -31
-62 -36 -70 -5 -8 -11 -22 -14 -30 -4 -8 -20 -37 -36 -65 -16 -27 -42 -75 -56
-105 -15 -30 -30 -57 -33 -60 -4 -3 -26 -43 -50 -90 -61 -120 -95 -184 -101
-190 -3 -3 -23 -41 -45 -85 -22 -44 -43 -82 -46 -85 -3 -3 -19 -33 -37 -68
-17 -34 -40 -78 -52 -97 -20 -32 -20 -36 -4 -42 36 -14 39 -9 175 247 13 25
29 51 36 58 7 7 13 22 13 32 0 10 4 20 8 22 5 2 22 30 39 63 16 33 47 92 68
130 21 39 52 97 69 130 17 33 34 62 37 65 3 3 23 41 45 85 21 44 55 107 74
140 19 33 53 96 75 140 22 44 43 82 46 85 4 3 18 30 33 60 15 30 40 78 56 105
16 28 48 88 72 135 23 47 45 87 49 90 3 3 19 30 33 60 15 30 47 91 71 135 24
44 57 105 72 135 15 30 34 61 40 68 7 7 13 22 13 32 0 10 4 20 8 22 5 2 15 15
23 31 56 109 94 183 99 187 3 3 23 41 45 85 22 44 43 82 46 85 4 3 19 30 33
60 15 30 47 91 71 135 24 44 56 105 72 135 15 30 31 57 34 60 3 3 19 30 34 60
34 70 76 149 103 194 17 29 18 35 5 40 -23 9 -41 7 -50 -6z"/>
<path d="M4571 3979 c-11 -11 -21 -27 -21 -35 0 -8 -5 -20 -11 -27 -6 -7 -23
-37 -39 -67 -16 -30 -39 -75 -52 -100 -13 -25 -25 -47 -28 -50 -3 -3 -23 -41
-45 -85 -22 -44 -43 -82 -46 -85 -4 -3 -18 -30 -33 -60 -15 -30 -31 -62 -36
-70 -5 -8 -11 -22 -14 -30 -4 -8 -16 -31 -27 -50 -12 -19 -44 -78 -72 -130
-60 -113 -113 -212 -146 -272 -13 -24 -45 -83 -70 -133 -25 -49 -49 -92 -52
-95 -4 -3 -19 -30 -33 -60 -15 -30 -47 -91 -71 -135 -24 -44 -57 -105 -72
-135 -15 -30 -32 -59 -36 -65 -9 -10 -28 -46 -102 -192 -22 -43 -42 -80 -45
-83 -3 -3 -18 -31 -34 -63 -16 -31 -33 -60 -37 -63 -5 -3 -9 -14 -9 -25 0 -10
-4 -19 -8 -19 -4 0 -20 -26 -36 -57 -15 -32 -47 -94 -71 -138 -24 -44 -56
-105 -72 -135 -15 -30 -31 -57 -34 -60 -3 -3 -19 -30 -33 -60 -15 -30 -47 -91
-71 -135 -24 -44 -56 -105 -72 -135 -15 -30 -31 -57 -34 -60 -3 -3 -18 -31
-33 -62 -15 -32 -32 -60 -37 -63 -17 -11 2 -25 34 -25 18 0 41 6 52 14 11 7
31 17 45 21 31 10 103 60 145 101 31 31 109 142 136 196 8 15 30 58 50 95 20
37 52 97 70 133 19 36 37 67 40 70 4 3 19 30 33 60 15 30 47 91 71 135 24 44
57 105 72 135 15 30 34 61 40 68 7 7 13 22 13 33 0 10 4 19 9 19 5 0 14 12 20
28 6 15 15 34 20 42 5 8 20 38 34 65 14 28 96 189 181 359 86 170 156 314 156
321 0 7 11 20 25 29 29 19 30 18 40 -54 3 -24 10 -49 14 -55 5 -5 11 -34 14
-64 4 -29 10 -58 15 -65 5 -6 12 -35 15 -65 4 -29 10 -58 15 -65 5 -6 13 -32
16 -58 4 -26 11 -50 17 -53 5 -4 9 -21 9 -38 0 -18 7 -45 15 -61 8 -15 15 -40
15 -55 0 -14 7 -39 15 -55 8 -15 15 -40 15 -55 0 -14 7 -39 15 -55 8 -15 15
-40 15 -55 0 -14 6 -38 14 -52 7 -14 16 -47 20 -72 4 -26 11 -49 17 -52 5 -4
9 -21 9 -38 0 -18 7 -45 15 -61 8 -15 15 -43 15 -60 0 -18 7 -41 15 -52 8 -10
15 -32 15 -49 0 -16 7 -43 15 -59 8 -15 15 -40 15 -55 0 -14 7 -39 15 -55 8
-15 15 -40 15 -55 0 -14 7 -39 15 -55 8 -15 15 -42 15 -58 0 -16 6 -42 14 -56
8 -15 18 -48 21 -74 3 -26 10 -50 16 -53 5 -4 9 -19 9 -35 0 -16 4 -31 9 -35
7 -4 664 -8 911 -5 15 0 12 31 -5 64 -8 15 -15 40 -15 55 0 15 -7 36 -15 47
-8 10 -15 33 -15 49 0 17 -7 43 -15 59 -8 15 -15 38 -15 50 0 11 -6 33 -14 47
-7 14 -16 47 -20 72 -4 26 -11 49 -17 52 -5 4 -9 18 -9 33 0 15 -6 39 -14 53
-7 14 -16 47 -20 72 -4 26 -11 49 -17 52 -5 4 -9 18 -9 33 0 15 -7 40 -15 56
-8 15 -15 38 -15 50 0 11 -6 33 -13 47 -8 14 -17 44 -21 68 -3 23 -10 50 -15
59 -9 18 -26 81 -42 152 -5 24 -14 49 -19 54 -6 6 -10 21 -10 35 0 15 -6 38
-14 52 -7 14 -16 47 -20 72 -4 26 -11 49 -17 52 -5 4 -9 18 -9 33 0 15 -6 39
-14 53 -7 14 -16 47 -20 72 -4 26 -11 49 -17 52 -5 4 -9 18 -9 33 -1 15 -7 38
-15 52 -8 14 -14 36 -15 50 0 14 -7 38 -15 54 -8 15 -15 40 -15 55 -1 14 -7
37 -15 51 -8 14 -14 36 -15 50 0 14 -7 38 -15 54 -8 15 -15 38 -15 50 0 11 -7
34 -15 50 -8 15 -15 40 -15 55 0 14 -7 39 -15 55 -8 15 -15 38 -15 50 0 11 -7
34 -15 50 -8 15 -15 40 -15 55 0 14 -6 38 -14 52 -7 14 -16 43 -20 65 -5 21
-11 44 -16 49 -4 6 -10 26 -13 45 -5 39 -20 83 -48 146 -11 23 -19 44 -19 48
0 9 -54 87 -85 124 -11 13 -45 41 -76 62 -57 39 -57 39 -78 19z"/>
<path d="M284 593 c-10 -16 -23 -36 -29 -45 -17 -29 -149 -222 -160 -234 -5
-6 -19 -27 -30 -47 -11 -20 -23 -37 -27 -37 -5 0 -8 -7 -8 -15 0 -23 34 -18
57 8 22 24 150 214 171 252 13 25 72 88 77 83 27 -28 195 -296 193 -307 -3
-13 -28 -17 -157 -21 -111 -4 -156 -9 -159 -17 -5 -17 393 -19 403 -2 4 5 -6
29 -22 51 -15 22 -32 49 -38 59 -5 11 -13 19 -17 19 -5 0 -8 5 -8 11 0 6 -8
21 -17 34 -10 12 -25 33 -33 45 -8 12 -20 28 -27 35 -6 6 -20 27 -30 46 -10
19 -25 43 -33 53 -56 66 -77 72 -106 29z"/>
<path d="M657 608 c-2 -8 -4 -72 -3 -143 1 -107 5 -136 21 -165 24 -45 31 -51
83 -78 37 -19 58 -22 163 -22 110 0 124 2 163 25 66 39 75 66 78 237 2 105 0
149 -9 152 -6 3 -14 2 -17 -1 -3 -4 -6 -64 -6 -135 0 -149 -14 -191 -75 -227
-51 -30 -192 -30 -258 -1 -78 35 -86 55 -89 221 -3 138 -4 144 -24 147 -12 2
-24 -3 -27 -10z"/>
<path d="M1273 613 c-7 -2 -13 -11 -13 -18 0 -11 23 -15 98 -17 l97 -3 5 -185
5 -185 25 0 25 0 2 175 c2 96 5 181 8 188 3 8 32 12 95 12 89 0 136 12 125 31
-6 9 -449 12 -472 2z"/>
<path d="M1873 595 c-29 -14 -63 -40 -80 -61 -24 -32 -28 -48 -31 -114 -5
-107 20 -153 106 -198 37 -19 58 -22 169 -22 110 0 131 3 172 23 58 28 75 46
101 101 26 59 25 109 -4 171 -27 59 -45 75 -108 104 -39 17 -66 21 -160 21
-98 -1 -120 -4 -165 -25z m281 -22 c30 -11 64 -32 83 -53 31 -33 33 -39 33
-110 0 -69 -3 -79 -30 -112 -17 -20 -43 -39 -60 -43 -16 -4 -32 -11 -35 -16
-8 -12 -202 -12 -210 0 -3 5 -18 12 -34 16 -15 3 -41 20 -57 36 -27 28 -29 36
-29 112 0 69 4 87 22 113 47 65 207 94 317 57z"/>
<path d="M2514 603 c-3 -10 -12 -30 -20 -45 -8 -14 -14 -37 -14 -50 0 -12 -7
-32 -15 -42 -8 -11 -15 -28 -15 -37 0 -10 -6 -30 -14 -46 -8 -15 -22 -55 -32
-88 -10 -33 -22 -65 -26 -71 -9 -13 0 -24 18 -24 14 0 54 69 54 93 0 8 7 28
15 43 8 16 15 36 15 45 0 9 7 30 15 45 8 16 15 36 15 44 0 8 11 28 23 44 l24
29 22 -49 c12 -27 28 -62 36 -79 7 -16 27 -59 43 -95 17 -36 36 -77 41 -92 8
-21 17 -28 36 -28 21 0 29 9 51 58 14 31 31 71 39 87 7 17 20 46 28 65 9 19
26 57 38 83 l21 48 24 -22 c13 -12 24 -32 24 -43 0 -12 7 -34 15 -50 8 -15 15
-36 15 -45 0 -9 7 -29 15 -45 8 -15 15 -34 15 -42 0 -24 41 -94 55 -94 18 0
28 17 15 25 -5 3 -10 16 -10 28 0 12 -7 35 -15 50 -8 15 -17 43 -21 63 -3 19
-10 37 -15 40 -5 3 -9 15 -9 28 0 12 -7 31 -15 42 -8 10 -15 27 -15 37 0 10
-9 38 -20 63 -28 60 -52 59 -81 -3 -12 -27 -28 -60 -35 -75 -8 -14 -14 -33
-14 -42 0 -9 -4 -16 -10 -16 -5 0 -13 -12 -16 -26 -9 -35 -67 -146 -77 -148
-9 -1 -26 30 -74 134 -98 210 -104 220 -124 220 -11 0 -22 -8 -25 -17z"/>
<path d="M3285 606 c-11 -7 -31 -17 -44 -21 -35 -11 -56 -33 -81 -90 -48 -105
-6 -224 95 -270 48 -22 67 -25 175 -25 98 0 129 4 163 19 75 34 117 101 117
186 0 88 -41 161 -101 180 -13 4 -33 14 -44 21 -14 10 -54 14 -140 14 -86 0
-126 -4 -140 -14z m254 -35 c29 -10 67 -33 84 -50 30 -30 32 -35 32 -109 -1
-95 -16 -122 -90 -157 -77 -36 -203 -36 -278 0 -75 36 -90 62 -91 155 -1 72 1
78 30 109 62 66 206 90 313 52z"/>
<path d="M3807 613 c-4 -3 -7 -12 -7 -20 0 -10 21 -13 89 -13 72 0 90 -3 95
-16 3 -9 6 -91 6 -184 0 -144 2 -169 16 -174 9 -3 20 -4 25 0 5 3 9 83 9 178
0 120 4 176 12 184 8 8 45 12 101 12 87 0 133 12 122 31 -7 10 -458 13 -468 2z"/>
<path d="M4375 609 c-10 -26 -1 -399 10 -402 14 -3 19 393 6 406 -7 7 -12 5
-16 -4z"/>
<path d="M4505 610 c-3 -5 4 -20 16 -34 12 -14 27 -34 33 -45 6 -11 33 -53 61
-93 27 -40 54 -80 60 -90 5 -9 30 -46 54 -83 40 -60 47 -66 74 -63 21 2 36 12
46 30 19 31 93 141 102 148 3 3 16 23 29 45 13 22 27 42 30 45 3 3 17 23 30
45 13 22 32 49 42 60 23 24 18 41 -12 37 -13 -1 -24 -3 -25 -5 -43 -70 -232
-347 -237 -347 -13 0 -42 33 -68 75 -13 22 -27 42 -30 45 -3 3 -17 23 -30 45
-13 22 -27 42 -30 45 -3 3 -17 23 -30 45 -55 91 -96 125 -115 95z"/>
<path d="M5195 610 c-4 -7 -8 -280 -5 -400 0 -11 377 -15 404 -4 42 16 -10 24
-163 24 -133 0 -171 3 -180 14 -7 9 -11 40 -9 78 l3 63 165 5 c136 4 165 8
168 20 2 13 -18 15 -147 12 -95 -2 -158 1 -171 8 -17 9 -20 21 -20 74 0 49 4
65 16 70 9 3 85 6 170 6 148 0 202 9 189 31 -8 12 -412 12 -420 -1z"/>
</g>
</svg>
